Coordinates
version=1
nRows=29
nColumns=22
inDegrees=yes

Units are S.I. units (second, meters, Newtons, ...)
If the header above contains a line with 'inDegrees', this indicates whether rotational values are in degrees (yes) or radians (no).

endheader
time	pelvis_tilt	pelvis_list	pelvis_rotation	pelvis_tx	pelvis_ty	pelvis_tz	hip_flexion_r	hip_adduction_r	hip_rotation_r	knee_angle_r	ankle_angle_r	subtalar_angle_r	hip_flexion_l	hip_adduction_l	hip_rotation_l	knee_angle_l	ankle_angle_l	subtalar_angle_l	lumbar_extension	lumbar_bending	lumbar_rotation
      1.40000000	     -8.75170668	      3.59830255	     -7.11206919	     -1.03467019	      0.87069238	     -0.19736465	     22.88616521	    -10.90214744	      7.26190261	    -42.21507015	     13.45783907	      4.04983873	      4.00379249	      3.46812809	     -2.44297193	     -9.71047851	     19.16020268	      0.35719661	      0.93588525	     -4.10612222	     12.73119550
      1.41000000	     -8.53121056	      3.39231326	     -6.95698289	     -1.03205753	      0.87090252	     -0.19853068	     24.34423271	    -10.45032735	      7.85322712	    -45.39878189	     12.04986634	      3.28524147	      3.49273386	      3.37915454	     -2.29115200	     -9.57221692	     19.26990373	      0.30066618	      0.52951472	     -3.96519314	     12.43230568
      1.42000000	     -8.28852264	      3.16062750	     -6.78814029	     -1.02931503	      0.87116842	     -0.19960146	     25.78867113	     -9.95399457	      8.35279459	    -48.50635784	     10.68396596	      2.39837374	      2.93459599	      3.25571378	     -2.13878690	     -9.41119392	     19.37698413	      0.27984276	      0.08971516	     -3.79818789	     12.10861874
      1.43000000	     -8.03583024	      2.91931999	     -6.60472512	     -1.02639212	      0.87144750	     -0.20055982	     27.21102216	     -9.44158236	      8.74952155	    -51.48042781	      9.45330786	      1.50729920	      2.33837242	      3.11175338	     -1.98390861	     -9.22504064	     19.49779056	      0.28711208	     -0.35769727	     -3.62383052	     11.75865121
      1.44000000	     -7.76486499	      2.63706118	     -6.35828162	     -1.02327986	      0.87178542	     -0.20151886	     28.54754656	     -8.92828351	      8.96585551	    -54.22598980	      8.41758993	      0.56413136	      1.70907891	      2.91949747	     -1.80140114	     -9.03750446	     19.60599416	      0.32177938	     -0.83216959	     -3.39824112	     11.31788509
      1.45000000	     -7.48938163	      2.32733513	     -6.05860116	     -1.01996859	      0.87214198	     -0.20247604	     29.80466070	     -8.44079771	      9.01755289	    -56.69661794	      7.65454684	     -0.25679149	      1.06038421	      2.68924216	     -1.58060379	     -8.84586627	     19.72288962	      0.38148045	     -1.31096419	     -3.13408487	     10.81733352
      1.46000000	     -7.20996757	      1.98924884	     -5.70376040	     -1.01648944	      0.87251014	     -0.20344885	     30.96872045	     -7.98609097	      8.92210649	    -58.84311175	      7.18647939	     -0.92047213	      0.41459552	      2.41884077	     -1.32740090	     -8.68474498	     19.86907722	      0.45668215	     -1.79662741	     -2.82651384	     10.26128550
      1.47000000	     -6.95111348	      1.63233292	     -5.31017918	     -1.01286274	      0.87285837	     -0.20442960	     32.06260574	     -7.57308562	      8.70281274	    -60.62486803	      6.97270894	     -1.45206455	     -0.19987700	      2.11613076	     -1.05380723	     -8.55112532	     20.02063742	      0.54296648	     -2.26154947	     -2.48120901	      9.67291928
      1.48000000	     -6.73163981	      1.25735338	     -4.86345234	     -1.00907284	      0.87316072	     -0.20544854	     33.09798684	     -7.22519499	      8.34396669	    -62.01595443	      6.92794297	     -1.68707562	     -0.76238521	      1.78015348	     -0.72440109	     -8.44340439	     20.15506684	      0.60747473	     -2.67599093	     -2.09721084	      9.04204117
      1.49000000	     -6.51445504	      0.85950199	     -4.41056313	     -1.00514026	      0.87344887	     -0.20642482	     34.03666003	     -6.91429106	      7.88744684	    -62.99691578	      7.02050141	     -2.09772504	     -1.30998695	      1.40744614	     -0.40950186	     -8.37088335	     20.34598667	      0.72120541	     -3.08657216	     -1.67717087	      8.43312457
      1.50000000	     -6.35565612	      0.47327215	     -3.93525698	     -1.00110538	      0.87363422	     -0.20740121	     34.94786759	     -6.67770269	      7.36929294	    -63.57480205	      7.15539784	     -2.16922289	     -1.77724896	      1.03408382	     -0.04751096	     -8.32772228	     20.49852446	      0.77456849	     -3.42564528	     -1.25300435	      7.80871999
      1.51000000	     -6.18577848	      0.07170732	     -3.48438185	     -0.99693526	      0.87380661	     -0.20828485	     35.74799898	     -6.46455465	      6.81007829	    -63.73733177	      7.27397334	     -2.26364965	     -2.25173056	      0.63479813	      0.27435638	     -8.30716181	     20.69014579	      0.85752197	     -3.77413859	     -0.80596997	      7.24111327
      1.52000000	     -6.08012335	     -0.29759973	     -3.05846769	     -0.99267710	      0.87382682	     -0.20906540	     36.53536756	     -6.30022098	      6.26531573	    -63.51493311	      7.37483013	     -2.21934790	     -2.64963126	      0.25838898	      0.61579851	     -8.30275561	     20.85371938	      0.89171486	     -4.04203958	     -0.39062708	      6.71403945
      1.53000000	     -5.94917756	     -0.67252131	     -2.64999381	     -0.98829953	      0.87383252	     -0.20977993	     37.19032540	     -6.15953328	      5.70709872	    -62.89677513	      7.36083517	     -2.10578702	     -3.04500026	     -0.12776642	      0.89073855	     -8.36509719	     21.03761886	      0.91979976	     -4.33969865	      0.03862769	      6.21150381
      1.54000000	     -5.81309454	     -1.03690375	     -2.27862998	     -0.98377552	      0.87377013	     -0.21036928	     37.73423121	     -6.02740180	      5.18360540	    -61.90144738	      7.26342960	     -1.89187425	     -3.43984059	     -0.50762644	      1.13634297	     -8.45700912	     21.23344572	      0.93689574	     -4.63707933	      0.45500448	      5.77140800
      1.55000000	     -5.60690745	     -1.39600120	     -1.95366263	     -0.97903695	      0.87371246	     -0.21081225	     38.08450546	     -5.88109432	      4.72736650	    -60.54597505	      7.12917081	     -1.36805820	     -3.91964221	     -0.88418433	      1.31289642	     -8.56278733	     21.46553796	      0.95660011	     -5.00534594	      0.86309062	      5.38021483
      1.56000000	     -5.44510734	     -1.74406897	     -1.62763394	     -0.97415147	      0.87348602	     -0.21117171	     38.37056152	     -5.74330716	      4.30330819	    -58.86028724	      6.86099247	     -0.81242405	     -4.32750989	     -1.25694626	      1.52164865	     -8.72883236	     21.71358539	      0.92659015	     -5.31333997	      1.26027977	      5.00272027
      1.57000000	     -5.23447520	     -2.05444130	     -1.34293699	     -0.96905097	      0.87320922	     -0.21141577	     38.49994402	     -5.61352699	      3.98075465	    -56.87269946	      6.45933243	      0.09541210	     -4.80046889	     -1.58828244	      1.68122977	     -8.90273138	     21.94505558	      0.87730058	     -5.66712326	      1.61645517	      4.67714757
      1.58000000	     -5.02130409	     -2.36213669	     -1.06296749	     -0.96374894	      0.87279390	     -0.21155870	     38.50251495	     -5.47017162	      3.71196327	    -54.59469721	      6.02427343	      1.01512343	     -5.25879918	     -1.92414861	      1.84481284	     -9.14070937	     22.23884322	      0.80017878	     -6.01297024	      1.96821023	      4.36406550
      1.59000000	     -4.81120746	     -2.63905442	     -0.80278400	     -0.95824371	      0.87221019	     -0.21156370	     38.40593793	     -5.32435007	      3.53786178	    -52.07442367	      5.53415489	      2.05330599	     -5.71528063	     -2.23510012	      2.00278254	     -9.40556590	     22.57285743	      0.70344297	     -6.34233107	      2.28426252	      4.05559258
      1.60000000	     -4.60212962	     -2.88612528	     -0.55257913	     -0.95253646	      0.87145404	     -0.21147980	     38.20841577	     -5.18904549	      3.44333440	    -49.33310220	      5.01513721	      3.18350675	     -6.16622295	     -2.51876366	      2.16491389	     -9.70974246	     22.94490780	      0.58611595	     -6.65952390	      2.56614449	      3.76551429
      1.61000000	     -4.41076135	     -3.09716667	     -0.31359978	     -0.94663598	      0.87048561	     -0.21129565	     37.94352087	     -5.06921150	      3.43221858	    -46.41500444	      4.49666675	      4.33612489	     -6.59460746	     -2.77081887	      2.33841671	    -10.04962923	     23.35838759	      0.45001734	     -6.94454735	      2.81111727	      3.47680787
      1.62000000	     -4.24261761	     -3.27043444	     -0.07984594	     -0.94054073	      0.86929435	     -0.21101397	     37.62442647	     -4.97015511	      3.50234986	    -43.35322245	      4.01482605	      5.45732558	     -6.99682408	     -2.99025522	      2.52580776	    -10.42169119	     23.80938800	      0.29940115	     -7.19141858	      3.01322716	      3.19024906
      1.63000000	     -4.11688886	     -3.40685092	      0.15111334	     -0.93424926	      0.86785474	     -0.21064224	     37.28546255	     -4.89687131	      3.64462923	    -40.19000505	      3.58101749	      6.50545065	     -7.35364896	     -3.17858574	      2.72978293	    -10.82314407	     24.28759792	      0.13891762	     -7.37708197	      3.17528492	      2.90311164
      1.64000000	     -3.98730948	     -3.50897562	      0.39061562	     -0.92775632	      0.86624154	     -0.21021063	     36.88451164	     -4.85905252	      3.82989970	    -36.95952398	      3.24722104	      7.33006113	     -7.71445605	     -3.33831048	      2.94086834	    -11.25401301	     24.80964288	     -0.00545470	     -7.55748181	      3.30303013	      2.60891434
      1.65000000	     -3.91694759	     -3.57345256	      0.62654456	     -0.92107595	      0.86437437	     -0.20970192	     36.50992366	     -4.85217579	      4.08647166	    -33.70540722	      2.98169314	      8.06557887	     -8.02508556	     -3.46604576	      3.15108231	    -11.68814824	     25.34186823	     -0.14232897	     -7.65893564	      3.39330018	      2.29110475
      1.66000000	     -3.91017911	     -3.63081543	      0.86591143	     -0.91420691	      0.86226088	     -0.20911241	     36.16995280	     -4.85612043	      4.36534970	    -30.45843622	      2.82972981	      8.50362858	     -8.26624540	     -3.59774701	      3.35035787	    -12.15410362	     25.89654733	     -0.24265013	     -7.67621512	      3.47943312	      1.97775584
      1.67000000	     -3.91461873	     -3.63899142	      1.10066411	     -0.90717939	      0.85999905	     -0.20849191	     35.83348861	     -4.91378611	      4.68742144	    -27.25842095	      2.73662978	      8.91622119	     -8.51858364	     -3.68190120	      3.54598446	    -12.60437125	     26.44264073	     -0.31695389	     -7.68018743	      3.51874187	      1.66805170
      1.68000000	     -3.95347609	     -3.60842277	      1.32988581	     -0.89998742	      0.85756532	     -0.20782308	     35.53748895	     -5.01521439	      5.03638591	    -24.14866986	      2.73210410	      9.26824182	     -8.75793977	     -3.73302044	      3.72902307	    -13.03940094	     26.97753121	     -0.35585261	     -7.64170764	      3.52231105	      1.36069787
